<svg version="1.2" xmlns="http://www.w3.org/2000/svg" viewBox="0 0 906 727" width="906" height="727">
	<title>New Project</title>
	<style>
		.s0 { fill: #000000 } 
		.s1 { fill: #363434 } 
	</style>
	<path id="Shape 15" fill-rule="evenodd" class="s0" d="m175 24c0 0 35-15.5 189-19 154-3.5 249 21 249 21l64 46 37 8-21 32 11 93-28 12 7 35-380 44-149-25-7-103-19-23-9-108z"/>
	<path id="ventas y repuestos  de motores" class="s0" aria-label="ventas y repuestos 
de motores"  d="m191.5 627c1.3 0 2.1-0.4 2.6-1.6l4.8-12.3c1.2-3 1.7-4 1.7-7.1v-13.2c0-1.3-0.5-1.8-1.8-1.8h-7.9c-1.3 0-1.8 0.5-1.8 1.8v13.7c0 0.8-0.2 1.4-0.4 2.1l-2.3 7c-0.3 0.7-0.5 0.9-1 0.9h-0.5c-0.6 0-0.8-0.2-1-0.9l-2.3-7c-0.3-0.7-0.5-1.3-0.5-2v-13.8c0-1.3-0.7-1.8-1.9-1.8h-8c-1.2 0-1.8 0.5-1.8 1.8v13.2c0 3.1 0.5 4.1 1.7 7.1l4.8 12.3c0.5 1.2 1.3 1.6 2.6 1.6zm-16.4-31.5h0.5v10.8c0 1.7 0.3 3.3 0.8 4.7l3.3 8c0.7 1.7 1.2 3 3.2 3h4.3c1.9 0 2.5-1.3 3.2-3l3.3-8c0.5-1.4 0.8-3 0.8-4.7v-10.8h0.5v10.8c0 1.8-0.2 3.4-0.8 4.8l-3.3 8c-0.8 2-1.5 3.4-3.7 3.4h-4.3c-2.2 0-2.9-1.4-3.7-3.4l-3.3-8c-0.6-1.4-0.8-3-0.8-4.8zm56.6 31.5c1.2 0 1.8-0.5 1.8-1.8v-5.9c0-1.2-0.6-1.8-1.8-1.8h-13.8v-4.3h9.8c1.2 0 1.7-0.5 1.7-1.7v-5.4c0-1.3-0.5-1.8-1.7-1.8h-9.8v-3.8h13.8c1.2 0 1.8-0.6 1.8-1.9v-5.8c0-1.3-0.6-1.8-1.8-1.8h-23.2c-1.3 0-1.8 0.5-1.8 1.8v32.4c0 1.3 0.5 1.8 1.8 1.8zm-2.7-5v0.5h-16.8v-27h16.8v0.5h-16.3v12.5h12.2v0.5h-12.2v13zm17-26.1l18.3 20.7v-21.1h0.5v27h-0.5v-5.2l-18.8-21.2c-0.2-0.1-0.2-0.1-0.3-0.1-0.1 0-0.1 0.1-0.1 0.1v26.4h-0.5v-26.5c0-0.4 0.3-0.5 0.6-0.5 0.3 0 0.4 0 0.8 0.4zm2.7 31.1c1.2 0 1.8-0.5 1.8-1.8v-16.5l8.5 10.3v6.2c0 1.3 0.6 1.8 1.8 1.8h7.5c1.3 0 1.8-0.5 1.8-1.8v-32.4c0-1.3-0.5-1.8-1.8-1.8h-7.5c-1.2 0-1.8 0.5-1.8 1.8v10.7l-9.7-11.2c-0.8-1-1.6-1.3-3-1.3h-5.1c-1.3 0-1.9 0.5-1.9 1.8v32.4c0 1.3 0.6 1.8 1.9 1.8zm45.3 0c1.3 0 1.8-0.5 1.8-1.8v-24.6h7.4c1.2 0 1.8-0.5 1.8-1.8v-6c0-1.3-0.6-1.8-1.8-1.8h-26.5c-1.2 0-1.7 0.5-1.7 1.8v6c0 1.3 0.5 1.8 1.7 1.8h7.4v24.6c0 1.3 0.6 1.8 1.8 1.8zm-4.3-4.5v-26.5h-10.3v-0.5h21v0.5h-10.2v26.5zm23.1-10.7v1.6h19.5v-1.6c0-1.8-0.2-3.3-0.7-4.6l-3.5-8.2c-0.8-1.7-1.3-3-3.2-3h-4.8c-2 0-2.6 1.3-3.3 3l-3.1 8.2c-0.5 1.3-0.9 2.8-0.9 4.6zm8-10.3c0.3-0.6 0.6-0.9 1-0.9h1.3c0.3 0 0.7 0.3 0.9 0.9l2.3 7.6h-7.8zm11.5 21v-8.6h-19.5v8.6h-0.5v-10.6c0-1.9 0.3-3.4 0.9-4.9l3.2-8.2c0.7-1.8 1.3-3.3 3.6-3.3h4.9c2.2 0 2.8 1.4 3.6 3.4l3.5 8.1c0.5 1.5 0.8 3 0.8 4.9v10.6zm-14.3 2.7v-7h8.8v7c0 1.3 0.6 1.8 2 1.8h7.5c1.3 0 1.8-0.5 1.8-1.8v-13.2c0-2-0.6-4.5-1.9-8l-4.4-11.4c-0.4-1.1-1.2-1.6-2.5-1.6h-13.4c-1.4 0-2.2 0.5-2.6 1.6l-4.3 11.4c-1.4 3.5-2 6-2 8v13.2c0 1.3 0.6 1.8 1.8 1.8h7.4c1.2 0 1.8-0.5 1.8-1.8zm43 1.8c6.4 0 10.3-3.1 10.3-8.8v-5.2c0-5.6-3.1-7.6-7.8-8.4l-7.4-1c-0.9-0.1-1.4-0.6-1.4-1.6 0-0.9 0.5-1.5 1.4-1.5h11.6c1.3 0 1.8-0.5 1.8-1.8v-5.9c0-1.3-0.5-1.8-1.8-1.8h-14c-6.5 0-10.3 3.1-10.3 8.8v5.2c0 5.6 3 7.6 7.7 8.4l7.5 1c0.9 0.1 1.3 0.6 1.3 1.7 0 0.8-0.4 1.4-1.3 1.4h-13.4c-1.3 0-1.8 0.6-1.8 1.9v5.8c0 1.3 0.5 1.8 1.8 1.8zm4-31.5v0.5h-11.1c-2.8 0-4.6 1.7-4.6 4v4.1c0 2.4 1 3.1 2.6 3.4l10.5 2.1c2 0.4 3.5 1.4 3.5 4.9v3c0 2.9-2.2 5-5.6 5h-12.4v-0.5h12.4c3.1 0 5.1-1.9 5.1-4.5v-3c0-3.1-1.2-4-3.1-4.4l-10.5-2.1c-1.8-0.4-3-1.1-3-3.9v-4.1c0-2.6 2-4.5 5.1-4.5zm40.8 31.5c1.2 0 1.7-0.5 1.7-1.8v-6.3l7.6-10.4c1.5-2 1.9-3 1.9-6.1v-9.6c0-1.3-0.5-1.8-1.7-1.8h-7.5c-1.3 0-1.8 0.5-1.8 1.8v8.2c0 0.7 0 1.4-0.5 2.1l-2.2 3.6c-0.4 0.6-0.7 0.8-1.3 0.8h-0.5c-0.5 0-0.8-0.2-1.2-0.8l-2.3-3.6c-0.4-0.7-0.4-1.4-0.4-2.1v-8.2c0-1.3-0.6-1.8-1.8-1.8h-7.7c-1.3 0-1.8 0.5-1.8 1.8v9.6c0 3.1 0.3 4.1 1.9 6.1l7.6 10.3v6.4c0 1.3 0.5 1.8 1.8 1.8zm-3.4-13h-0.4v8.5h-0.5v-8.5h-0.5c-1.4 0-2.5-0.6-3.6-2.1l-4.9-6.8c-0.7-1-0.7-2.4-0.7-3.9v-5.7h0.5v5.7c0 1.4 0 2.7 0.7 3.7l4.8 6.7c0.9 1.4 2.1 1.9 3.2 1.9h1.4c1.2 0 2.2-0.5 3.2-1.9l5-6.7c0.7-0.9 0.7-2.3 0.7-3.7v-5.7h0.5v5.7c0 1.5 0.1 2.8-0.7 3.9l-5 6.8c-1.1 1.4-2.2 2.1-3.7 2.1zm48-18h-10.9v14.5h10.9c4.1 0 5.2-2.1 5.2-5.8v-3.5c0-3.1-1.7-5.2-5.2-5.2zm-5.5 4h3.7c1.8 0 2.2 1 2.2 2.4v1.6c0 1.4-0.4 2.4-2.2 2.4h-3.7zm-5.4 22.5h-0.5v-27h11.4c3.9 0 5.7 2.4 5.7 5.7v3.4c0 3.1-0.6 5.1-3 5.9h0.5c4.1 0 6.1 1.8 6.1 5.3v6.7h-0.5v-6.7c0-3.3-1.8-4.9-5.6-4.9h-14.1zm3.6 4.5c1.2 0 1.8-0.6 1.8-1.8v-9.8h7c1.4 0 1.9 0.6 1.9 2.1v7.7c0 1.2 0.5 1.8 1.8 1.8h7.7c1.3 0 1.8-0.6 1.8-1.8v-10.6c0-4.2-2.4-6.9-6-7.3 2.1-0.9 2.8-2.9 2.8-5.7v-2.3c0-4.9-2.4-8.3-9.9-8.3h-16.6c-1.3 0-1.8 0.5-1.8 1.8v32.4c0 1.2 0.5 1.8 1.8 1.8zm52.6 0c1.3 0 1.8-0.6 1.8-1.8v-5.9c0-1.2-0.5-1.8-1.8-1.8h-13.8v-4.3h9.8c1.2 0 1.8-0.5 1.8-1.8v-5.3c0-1.3-0.6-1.8-1.8-1.8h-9.8v-3.9h13.8c1.3 0 1.8-0.5 1.8-1.8v-5.8c0-1.3-0.5-1.8-1.8-1.8h-23.2c-1.2 0-1.8 0.5-1.8 1.8v32.4c0 1.2 0.6 1.8 1.8 1.8zm-2.7-5v0.5h-16.8v-27h16.8v0.5h-16.3v12.5h12.3v0.5h-12.3v13zm19.9 5c1.3 0 1.8-0.6 1.8-1.8v-8.3h5.8c9.1 0 11.8-4 11.8-9.8v-6.4c0-5.8-2.7-9.7-11.8-9.7h-15.3c-1.3 0-1.8 0.5-1.8 1.8v32.4c0 1.2 0.5 1.8 1.8 1.8zm6.8-14.4h-10.3v9.9h-0.5v-27h10.8c6.3 0 7.5 2.9 7.5 6.8v3.7c0 3.9-1.2 6.6-7.5 6.6zm-10.3-0.5h10.3c5.9 0 7-2.5 7-6.1v-3.7c0-3.6-1.1-6.3-7-6.3h-10.3zm5.2-11.8h4.5c1.9 0 2.3 1.1 2.3 2.4v2.7c0 1.3-0.4 2.4-2.3 2.4h-4.5zm53.5 17.2v-24.7c0-1.3-0.6-1.8-1.8-1.8h-7.6c-1.3 0-1.8 0.5-1.8 1.8v22.8c0 1.3-0.6 2.3-4.2 2.3-3.5 0-4.1-1-4.1-2.3v-22.8c0-1.3-0.5-1.8-1.8-1.8h-7.8c-1.3 0-1.8 0.5-1.8 1.8v24.7c0 6.1 3 10.2 15.4 10.2 12.4 0 15.5-4.1 15.5-10.2zm-25.4-22h0.5v20.8c0 3.8 2 6.3 9.5 6.3 7.4 0 9.5-2.5 9.5-6.3v-20.8h0.5v20.8c0 4.1-2.2 6.8-10 6.8-7.9 0-10-2.7-10-6.8zm57 31.5c1.3 0 1.8-0.5 1.8-1.8v-5.8c0-1.3-0.5-1.8-1.8-1.8h-13.8v-4.3h9.8c1.2 0 1.8-0.6 1.8-1.8v-5.4c0-1.2-0.6-1.8-1.8-1.8h-9.8v-3.8h13.8c1.3 0 1.8-0.6 1.8-1.8v-5.9c0-1.2-0.5-1.8-1.8-1.8h-23.2c-1.2 0-1.8 0.6-1.8 1.8v32.4c0 1.3 0.6 1.8 1.8 1.8zm-2.7-5v0.5h-16.8v-27h16.8v0.5h-16.3v12.6h12.3v0.5h-12.3v12.9zm27.1 5c6.4 0 10.3-3.1 10.3-8.8v-5.2c0-5.6-3.1-7.6-7.8-8.3l-7.4-1c-0.9-0.1-1.4-0.7-1.4-1.6 0-0.9 0.5-1.5 1.4-1.5h11.6c1.3 0 1.8-0.6 1.8-1.8v-6c0-1.2-0.5-1.8-1.8-1.8h-14c-6.5 0-10.3 3.1-10.3 8.8v5.3c0 5.6 3 7.6 7.7 8.3l7.5 1c0.9 0.1 1.3 0.6 1.3 1.7 0 0.8-0.4 1.5-1.3 1.5h-13.4c-1.3 0-1.8 0.5-1.8 1.8v5.8c0 1.3 0.5 1.8 1.8 1.8zm4-31.5v0.5h-11.1c-2.8 0-4.6 1.7-4.6 4.1v4.1c0 2.3 1 3 2.6 3.3l10.5 2.2c2 0.4 3.5 1.4 3.5 4.9v2.9c0 2.9-2.2 5-5.6 5h-12.4v-0.5h12.4c3.1 0 5.1-1.9 5.1-4.5v-2.9c0-3.2-1.2-4-3.1-4.4l-10.5-2.2c-1.8-0.3-3-1.1-3-3.8v-4.1c0-2.7 2-4.6 5.1-4.6zm28.3 31.5c1.2 0 1.8-0.5 1.8-1.8v-24.5h7.4c1.2 0 1.7-0.6 1.7-1.8v-6.1c0-1.2-0.5-1.8-1.7-1.8h-26.5c-1.2 0-1.8 0.6-1.8 1.8v6.1c0 1.2 0.6 1.8 1.8 1.8h7.4v24.5c0 1.3 0.6 1.8 1.8 1.8zm-4.3-4.5v-26.5h-10.2v-0.5h21v0.5h-10.3v26.5zm50.4-4.9v-17.1c0-6.1-3-10.2-15.5-10.2-12.5 0-15.6 4.1-15.6 10.2v17.1c0 6.1 3.1 10.2 15.6 10.2 12.5 0 15.5-4.1 15.5-10.2zm-5.5-1.2c0 4.1-2.3 6.8-10.1 6.8-7.9 0-10.1-2.7-10.1-6.8v-14.7c0-4.1 2.2-6.8 10.1-6.8 7.8 0 10.1 2.7 10.1 6.8zm-19.7 0c0 3.7 2.1 6.2 9.6 6.2 7.4 0 9.6-2.5 9.6-6.2v-14.8c0-3.7-2.2-6.2-9.6-6.2-7.5 0-9.6 2.5-9.6 6.2zm5.5-0.6v-13.5c0-1.3 0.6-2.3 4.2-2.3 3.6 0 4.2 1 4.2 2.3v13.5c0 1.3-0.6 2.3-4.2 2.3-3.6 0-4.2-1-4.2-2.3zm42.7 11.2c6.5 0 10.4-3.1 10.4-8.8v-5.2c0-5.6-3.1-7.6-7.8-8.3l-7.5-1c-0.8-0.1-1.3-0.7-1.3-1.6 0-0.9 0.5-1.5 1.3-1.5h11.7c1.2 0 1.8-0.6 1.8-1.8v-6c0-1.2-0.6-1.8-1.8-1.8h-14c-6.5 0-10.4 3.1-10.4 8.8v5.3c0 5.6 3.1 7.6 7.8 8.3l7.5 1c0.8 0.1 1.3 0.6 1.3 1.7 0 0.8-0.5 1.5-1.3 1.5h-13.5c-1.2 0-1.8 0.5-1.8 1.8v5.8c0 1.3 0.6 1.8 1.8 1.8zm4.1-31.5v0.5h-11.1c-2.9 0-4.6 1.7-4.6 4.1v4.1c0 2.3 1 3 2.5 3.3l10.6 2.2c2 0.4 3.4 1.4 3.4 4.9v2.9c0 2.9-2.1 5-5.5 5h-12.5v-0.5h12.5c3.1 0 5-1.9 5-4.5v-2.9c0-3.2-1.2-4-3-4.4l-10.6-2.2c-1.7-0.3-2.9-1.1-2.9-3.8v-4.1c0-2.7 2-4.6 5.1-4.6zm-415.7 91.5c8.4 0 12.3-3.2 12.3-10.2v-15.6c0-6.9-3.9-10.2-12.3-10.2h-16.8c-1.3 0-1.8 0.6-1.8 1.8v32.4c0 1.3 0.5 1.8 1.8 1.8zm-13.2-4.5v-27h12.1c6.8 0 8 3.1 8 7v13.2c0 3.9-1.1 6.8-8 6.8zm12.1-26.5h-11.6v26h11.6c6.4 0 7.5-2.6 7.5-6.3v-13.2c0-3.7-1.2-6.5-7.5-6.5zm-6.2 4.6h5.9c1.6 0 2.4 0.7 2.4 2.4v12.1c0 1.7-0.8 2.5-2.4 2.5h-5.9zm50.9 26.4c1.3 0 1.8-0.5 1.8-1.8v-5.8c0-1.3-0.5-1.8-1.8-1.8h-13.8v-4.3h9.8c1.2 0 1.8-0.6 1.8-1.8v-5.4c0-1.2-0.6-1.8-1.8-1.8h-9.8v-3.8h13.8c1.3 0 1.8-0.6 1.8-1.8v-5.9c0-1.2-0.5-1.8-1.8-1.8h-23.2c-1.2 0-1.8 0.6-1.8 1.8v32.4c0 1.3 0.6 1.8 1.8 1.8zm-2.7-5v0.5h-16.8v-27h16.8v0.5h-16.3v12.6h12.3v0.5h-12.3v12.9zm39.2-14.2c1.2 0 1.4-0.4 2.6-2.1l6.1-9.3c0.4-0.7 0.9-0.9 1.4-0.9h0.9c0.9 0 1.3 0.5 1.3 1.6v25.4h-0.5v-25.4c0-0.6-0.1-1.1-0.8-1.1h-0.8c-0.4 0-0.7 0.1-1.1 0.7l-6.1 9.2c-1.2 1.8-1.5 2.4-3 2.4-1.4 0-1.7-0.6-2.9-2.4l-6.1-9.2c-0.4-0.6-0.8-0.7-1.2-0.7h-0.8c-0.7 0-0.8 0.5-0.8 1.1v25.4h-0.5v-25.4c0-1.1 0.4-1.6 1.3-1.6h0.9c0.5 0 1.1 0.2 1.5 0.9l6.1 9.3c1.1 1.7 1.3 2.1 2.5 2.1zm-8.3 19.2c1.2 0 1.8-0.5 1.8-1.8v-17.6l2.9 5.5c0.6 1.1 1.4 1.6 2.7 1.6h2c1.3 0 2-0.5 2.6-1.6l3-5.5v17.6c0 1.3 0.5 1.8 1.8 1.8h7.7c1.2 0 1.8-0.5 1.8-1.8v-32.4c0-1.2-0.6-1.8-1.8-1.8h-8.1c-1.1 0-1.7 0.4-2.3 1.5l-4.5 8.2c-0.3 0.6-0.5 0.8-0.9 0.8h-0.4c-0.4 0-0.6-0.2-0.9-0.8l-4.5-8.2c-0.6-1.1-1.3-1.5-2.3-1.5h-8.1c-1.2 0-1.8 0.6-1.8 1.8v32.4c0 1.3 0.6 1.8 1.8 1.8zm63.7-9.4v-17.1c0-6.1-3-10.2-15.5-10.2-12.5 0-15.5 4.1-15.5 10.2v17.1c0 6.1 3 10.2 15.5 10.2 12.5 0 15.5-4.1 15.5-10.2zm-5.4-1.2c0 4.1-2.3 6.8-10.2 6.8-7.8 0-10-2.7-10-6.8v-14.7c0-4.1 2.2-6.8 10-6.8 7.9 0 10.2 2.7 10.2 6.8zm-19.7 0c0 3.7 2.1 6.2 9.5 6.2 7.5 0 9.7-2.5 9.7-6.2v-14.8c0-3.7-2.2-6.2-9.7-6.2-7.4 0-9.5 2.5-9.5 6.2zm5.4-0.6v-13.5c0-1.3 0.6-2.3 4.2-2.3 3.7 0 4.2 1 4.2 2.3v13.5c0 1.3-0.5 2.3-4.2 2.3-3.6 0-4.2-1-4.2-2.3zm42.8 11.2c1.3 0 1.8-0.5 1.8-1.8v-24.5h7.4c1.2 0 1.8-0.6 1.8-1.8v-6.1c0-1.2-0.6-1.8-1.8-1.8h-26.4c-1.3 0-1.8 0.6-1.8 1.8v6.1c0 1.2 0.5 1.8 1.8 1.8h7.3v24.5c0 1.3 0.6 1.8 1.8 1.8zm-4.3-4.5v-26.5h-10.2v-0.5h21v0.5h-10.3v26.5zm50.4-4.9v-17.1c0-6.1-3-10.2-15.5-10.2-12.5 0-15.6 4.1-15.6 10.2v17.1c0 6.1 3.1 10.2 15.6 10.2 12.5 0 15.5-4.1 15.5-10.2zm-5.5-1.2c0 4.1-2.3 6.8-10.1 6.8-7.9 0-10.1-2.7-10.1-6.8v-14.7c0-4.1 2.2-6.8 10.1-6.8 7.8 0 10.1 2.7 10.1 6.8zm-19.7 0c0 3.7 2.1 6.2 9.6 6.2 7.4 0 9.6-2.5 9.6-6.2v-14.8c0-3.7-2.2-6.2-9.6-6.2-7.5 0-9.6 2.5-9.6 6.2zm5.5-0.6v-13.5c0-1.3 0.6-2.3 4.2-2.3 3.6 0 4.2 1 4.2 2.3v13.5c0 1.3-0.6 2.3-4.2 2.3-3.6 0-4.2-1-4.2-2.3zm42.8-19.8h-10.9v14.5h10.9c4.2 0 5.2-2.1 5.2-5.8v-3.5c0-3.1-1.6-5.2-5.2-5.2zm-5.5 4h3.8c1.7 0 2.2 1 2.2 2.4v1.7c0 1.3-0.5 2.3-2.2 2.3h-3.8zm-5.4 22.5h-0.5v-27h11.4c3.9 0 5.7 2.4 5.7 5.7v3.5c0 3-0.6 5-3 5.8h0.6c4.1 0 6 1.8 6 5.3v6.7h-0.5v-6.7c0-3.3-1.7-4.9-5.5-4.9h-14.2zm3.6 4.5c1.3 0 1.8-0.5 1.8-1.8v-9.8h7c1.4 0 1.9 0.7 1.9 2.2v7.6c0 1.3 0.6 1.8 1.8 1.8h7.8c1.2 0 1.8-0.5 1.8-1.8v-10.6c0-4.2-2.4-6.8-6.1-7.2 2.1-0.9 2.8-2.9 2.8-5.7v-2.3c0-5-2.3-8.4-9.8-8.4h-16.7c-1.2 0-1.8 0.6-1.8 1.8v32.4c0 1.3 0.6 1.8 1.8 1.8zm52.7 0c1.2 0 1.8-0.5 1.8-1.8v-5.8c0-1.3-0.6-1.8-1.8-1.8h-13.8v-4.3h9.7c1.3 0 1.8-0.6 1.8-1.8v-5.4c0-1.2-0.5-1.8-1.8-1.8h-9.7v-3.8h13.8c1.2 0 1.8-0.6 1.8-1.8v-5.9c0-1.2-0.6-1.8-1.8-1.8h-23.2c-1.3 0-1.8 0.6-1.8 1.8v32.4c0 1.3 0.5 1.8 1.8 1.8zm-2.7-5v0.5h-16.9v-27h16.9v0.5h-16.4v12.6h12.3v0.5h-12.3v12.9zm27.1 5c6.5 0 10.4-3.1 10.4-8.8v-5.2c0-5.6-3.1-7.6-7.8-8.3l-7.5-1c-0.8-0.1-1.3-0.7-1.3-1.6 0-0.9 0.5-1.5 1.3-1.5h11.7c1.2 0 1.8-0.6 1.8-1.8v-6c0-1.2-0.6-1.8-1.8-1.8h-14c-6.5 0-10.4 3.1-10.4 8.8v5.3c0 5.6 3.1 7.6 7.8 8.3l7.5 1c0.8 0.1 1.3 0.6 1.3 1.7 0 0.8-0.5 1.5-1.3 1.5h-13.5c-1.2 0-1.8 0.5-1.8 1.8v5.8c0 1.3 0.6 1.8 1.8 1.8zm4.1-31.5v0.5h-11.1c-2.8 0-4.6 1.7-4.6 4.1v4.1c0 2.3 1 3 2.5 3.3l10.6 2.2c2 0.4 3.4 1.4 3.4 4.9v2.9c0 2.9-2.1 5-5.5 5h-12.5v-0.5h12.5c3.1 0 5-1.9 5-4.5v-2.9c0-3.2-1.2-4-3-4.4l-10.6-2.2c-1.7-0.3-2.9-1.1-2.9-3.8v-4.1c0-2.7 2-4.6 5.1-4.6z"/>
	<path id="Shape 7" class="s0" d="m577 226l296-26 8 24-293 37z"/>
	<path id="Shape 10" class="s0" d="m665 238.9v77h17v10.1h-44.2v-9h18.2v-78z"/>
	<path id="Shape 3" class="s0" d="m271.5 359c-47.3 0-85.5-38.2-85.5-85.5 0-47.3 38.2-85.5 85.5-85.5 47.3 0 85.5 38.2 85.5 85.5 0 47.3-38.2 85.5-85.5 85.5z"/>
	<path id="Shape 6" class="s0" d="m505 381c-47 0-85-38-85-85 0-47 38-85 85-85 47 0 85 38 85 85 0 47-38 85-85 85z"/>
	<path id="Shape 16" class="s1" d="m140 141c-5 0-9-10.3-9-23 0-12.7 4-23 9-23 5 0 9 10.3 9 23 0 12.7-4 23-9 23z"/>
	<path id="Shape 16 copy" class="s1" d="m238 141c-5 0-9-10.3-9-23 0-12.7 4-23 9-23 5 0 9 10.3 9 23 0 12.7-4 23-9 23z"/>
	<path id="Shape 17" class="s1" d="m157 156h73v10h-73z"/>
	<path id="Shape 17 copy" class="s1" d="m161 178h73v10h-73z"/>
	<path id="fc" class="s0" aria-label="fc"  d="m359.2 570c6.3 0 9-2.8 9-9v-49.3h43.5c6.3 0 9-2.7 9-9v-30c0-6.2-2.7-9-9-9h-43.5v-26h63.8c6.2 0 9-2.7 9-9v-29.7c0-6.3-2.8-9-9-9h-111.5c-6.3 0-9 2.7-9 9v162c0 6.2 2.7 9 9 9zm225.2 0c6.3 0 9-2.8 9-9v-29.8c0-6.2-2.7-9-9-9h-50.2c-10.5 0-15.3-3.7-15.3-12v-59.5c0-8.5 4.8-12.5 15.3-12.5h50.2c6.3 0 9-2.7 9-9v-30.2c0-6.3-2.7-9-9-9h-61c-42 0-61.5 16.2-61.5 51.3v77.7c0 34.8 19.5 51 61.5 51z"/>
	<path id="Shape 17 copy 2" fill-rule="evenodd" class="s1" d="m166 200h73v10h-73z"/>
</svg>